<?xml version="1.0" standalone="no"?>
<!DOCTYPE svg PUBLIC "-//W3C//DTD SVG 20010904//EN"
 "http://www.w3.org/TR/2001/REC-SVG-20010904/DTD/svg10.dtd">
<svg version="1.0" xmlns="http://www.w3.org/2000/svg"
 width="470.000000pt" height="376.000000pt" viewBox="0 0 470.000000 376.000000"
 preserveAspectRatio="xMidYMid meet">
<metadata>
Created by potrace 1.16, written by Peter Selinger 2001-2019
</metadata>
<g transform="translate(0.000000,376.000000) scale(0.100000,-0.100000)"
fill="#000000" stroke="none">
<path d="M2110 3203 c-197 -131 -242 -143 -427 -114 -74 12 -99 12 -132 2 -62
-18 -103 -60 -130 -132 -75 -200 -140 -268 -308 -323 -69 -23 -126 -65 -148
-111 -21 -45 -23 -133 -5 -219 22 -105 -8 -206 -94 -321 -79 -105 -106 -157
-106 -204 0 -36 8 -51 65 -119 119 -140 163 -267 135 -387 -14 -59 -14 -147 1
-192 15 -47 87 -105 155 -127 154 -48 238 -128 277 -262 22 -75 51 -126 87
-153 37 -27 124 -53 155 -46 167 38 217 36 315 -8 30 -13 89 -50 130 -81 92
-68 128 -86 174 -86 49 0 97 26 176 95 112 98 195 127 303 104 34 -7 91 -14
127 -15 54 -2 73 2 114 24 54 30 101 86 112 135 11 50 61 132 110 181 49 48
130 94 210 120 98 32 152 120 139 229 -14 132 -14 232 1 278 9 25 40 77 70
115 81 104 104 153 104 221 0 66 -16 97 -97 191 -72 85 -96 155 -89 252 19
241 19 232 -6 280 -27 54 -78 89 -170 119 -141 46 -232 141 -275 285 -25 84
-64 131 -130 156 -54 21 -62 21 -118 9 -33 -8 -103 -14 -155 -13 -115 1 -158
18 -249 95 -152 129 -160 130 -321 22z m580 -804 c0 -6 5 -7 10 -4 6 4 18 4
27 1 12 -5 13 -9 3 -21 -7 -9 -20 -14 -28 -13 -27 5 -51 -137 -30 -172 9 -14
9 -22 -1 -33 -11 -14 -17 -71 -25 -233 -2 -34 -6 -66 -9 -71 -4 -6 -1 -18 6
-27 11 -15 19 -7 71 60 56 72 58 78 41 90 -10 8 -16 17 -12 20 4 4 13 1 21 -5
12 -10 19 -6 39 21 14 18 32 47 41 65 18 37 21 38 63 47 25 6 35 3 52 -15 14
-15 18 -27 12 -38 -5 -9 -10 -43 -12 -76 -6 -105 -2 -528 5 -570 26 -162 29
-237 11 -260 -15 -18 -18 -19 -43 -5 -15 9 -31 26 -37 38 -5 12 -13 22 -17 22
-5 0 -8 5 -8 11 0 6 7 9 15 5 13 -4 14 2 10 37 -4 23 -10 60 -16 82 -11 48
-30 181 -29 212 0 13 -5 22 -11 20 -6 -1 -14 4 -16 11 -3 6 2 12 10 12 10 0
13 8 11 28 -2 15 -6 72 -9 127 -3 56 -9 114 -13 130 l-8 29 -24 -49 c-14 -28
-25 -52 -25 -55 0 -3 -7 -16 -14 -29 -7 -12 -11 -31 -8 -41 3 -10 -6 -51 -19
-92 -30 -91 -34 -110 -35 -176 -1 -41 -7 -60 -24 -80 -22 -25 -25 -26 -37 -9
-7 10 -25 23 -38 30 l-25 13 -1 188 c-1 167 -3 190 -18 198 -14 8 -15 13 -5
24 11 14 15 266 4 284 -5 7 -32 6 -150 -5 -27 -3 -74 -7 -104 -10 -29 -2 -59
-9 -66 -15 -16 -14 -83 -21 -90 -10 -2 4 -16 5 -30 2 -23 -4 -25 -8 -25 -65 0
-42 5 -66 16 -79 14 -15 15 -18 2 -23 -10 -4 -15 -24 -16 -71 -2 -73 3 -91 22
-75 10 8 16 4 24 -15 10 -22 9 -28 -11 -48 -22 -22 -23 -28 -15 -87 4 -34 12
-67 18 -74 5 -6 9 -20 9 -30 -1 -11 6 -38 15 -60 28 -73 19 -98 -25 -75 -15 8
-21 7 -25 -5 -3 -8 -10 -12 -16 -9 -5 3 -7 13 -4 21 4 8 -3 22 -14 31 -26 21
-70 122 -79 182 -8 51 -18 73 -31 65 -17 -11 -23 18 -6 31 16 11 17 22 9 86
-6 59 -11 72 -24 70 -24 -4 -46 25 -30 41 10 9 16 8 27 -8 13 -18 15 -10 12
80 l-2 101 -35 -2 c-36 -2 -98 -22 -72 -23 11 -1 11 -4 1 -16 -14 -17 -34 -9
-26 11 6 15 -2 17 -55 8 -31 -5 -36 -10 -31 -26 4 -15 1 -19 -9 -16 -8 3 -13
13 -13 22 1 9 -6 16 -17 16 -10 0 -39 15 -64 32 -39 27 -48 30 -56 18 -8 -13
-10 -13 -19 0 -5 9 -5 19 0 24 5 5 4 17 -3 28 -10 16 -9 22 6 33 29 21 179 41
375 49 21 1 22 5 22 73 0 43 5 75 12 79 6 4 37 8 70 8 67 2 73 -6 63 -76 -3
-24 -2 -48 2 -54 7 -10 89 -19 131 -15 7 0 12 15 12 36 0 71 48 140 71 104 11
-16 1 -129 -12 -145 -7 -9 10 -12 64 -12 41 1 79 -2 85 -6 19 -12 102 -24 102
-15 0 5 -4 9 -9 9 -21 0 -22 35 0 52 17 14 19 21 10 32 -9 10 -9 20 -2 33 5
10 12 30 15 44 5 21 12 26 35 27 17 0 38 5 48 10 19 11 53 -1 53 -19z"/>
</g>
</svg>
